<?xml version="1.0" encoding="UTF-8"?>
<svg id="Layer_2" data-name="Layer 2" xmlns="http://www.w3.org/2000/svg" xmlns:xlink="http://www.w3.org/1999/xlink" viewBox="0 0 120.85 120.86">
  <defs>
    <style>
      .cls-1 {
        fill: url(#linear-gradient);
      }

      .cls-1, .cls-2, .cls-3, .cls-4, .cls-5 {
        stroke-width: 0px;
      }

      .cls-2 {
        fill: #fff;
      }

      .cls-3 {
        fill: url(#linear-gradient-2);
      }

      .cls-4 {
        fill: url(#linear-gradient-3);
      }

      .cls-5 {
        fill: #6fbe44;
      }
    </style>
    <linearGradient id="linear-gradient" x1="41.08" y1="-6.7" x2="79.77" y2="127.56" gradientUnits="userSpaceOnUse">
      <stop offset="0" stop-color="#6fbe44"/>
      <stop offset="1" stop-color="#006838"/>
    </linearGradient>
    <linearGradient id="linear-gradient-2" x1="40.84" y1="-6.63" x2="79.52" y2="127.63" xlink:href="#linear-gradient"/>
    <linearGradient id="linear-gradient-3" x1="29.54" y1="-3.38" x2="68.23" y2="130.89" xlink:href="#linear-gradient"/>
  </defs>
  <g id="Layer_1-2" data-name="Layer 1">
    <g>
      <path class="cls-1" d="M100.07,0H20.78C9.3,0,0,9.31,0,20.79v79.28c0,11.48,9.3,20.79,20.78,20.79h79.29c11.48,0,20.78-9.31,20.78-20.79V20.79c0-11.48-9.3-20.79-20.78-20.79ZM96.07,87.38c-.09,4.98-2.31,9.04-6.63,11.62-4.94,2.94-9.9,5.84-14.89,8.7-.78.45-1.56.89-2.34,1.33-.02.01-.03.03-.05.04-1.23.7-2.46,1.4-3.69,2.09,0,0,0,0,0,0-.39.22-.78.45-1.18.67-.18.1-.34.19-.52.28l-1.24-1.49h0l-2.55-3.08-23.28-28.1c-.83-1.01-2.33-1.12-3.32-.26l-5.89,5.18,16.74,11.63c.16.08.25.14.26.18l-.26-.18c-2.48-1.28-22.41-7.94-22.42-8.51-.03-2.33-.06-4.66-.08-6.98,0-.01,0-.03,0-.04,0-.32,0-.64-.01-.96-.05-5.98-.02-11.97.1-17.94.1-4.89,2.55-8.68,6.66-11.34,1.42-.91,2.9-1.73,4.4-2.5.74-.38,1.06-.82,1.05-1.7-.03-11.79.05-1.99-.04-13.79-.09-10.98,8.29-21.2,19.1-23.07,12.87-2.22,24.48,5.46,27.35,18.19.45,1.98.58,4.07.61,6.12,0,.35,0,.69,0,1.04l.03-.03c0-.18,0-.2,0,0,0,.51,0,1.03,0,1.54,0,.51,0,1.11,0,1.78,0,2.24.01,4.48,0,6.71,0,.53,0,1.07,0,1.61.07.76.37,1.24,1.14,1.67,2.61,1.47,5.38,2.72,7.42,5.08,2.38,2.76,3.53,5.97,3.55,9.54.06,8.32.13,16.65-.02,24.97Z"/>
      <path class="cls-5" d="M78.3,50.32c-2.28-1.33-4.56-2.66-6.84-3.98l-25.1,23.82c-.88.84-.97,2.22-.19,3.16l24.71,29.92c4.97-2.87,9.92-5.74,14.9-8.59,3.15-1.81,4.68-4.46,4.64-8.1-.04-3.98,0-7.95,0-11.93h-.02c0-4.21.03-8.41-.02-12.62-.03-3.07-1.43-5.49-4.05-7.03-2.66-1.57-5.34-3.11-8.01-4.66,0,.3,0,.27-.01,0ZM66.59,76.68c-.75.43-1.01.89-.98,1.71.06,1.87.04,3.74,0,5.62-.02,1.84-1.14,3.03-2.79,3.05-1.62,0-2.74-1.21-2.78-3.06-.02-.96,0-1.92,0-2.88,0-.27-.03-.55,0-.82.23-1.92-.18-3.28-2.06-4.46-2.93-1.83-3.84-5.73-2.61-8.87,1.32-3.39,4.5-5.4,8.05-5.1,3.6.31,6.4,2.73,7.12,6.14.75,3.57-.65,6.73-3.95,8.66Z"/>
      <path class="cls-3" d="M62.89,67.44c-1.28-.03-2.3.91-2.32,2.18-.04,1.34.99,2.43,2.26,2.42,1.24,0,2.26-1.04,2.26-2.29,0-1.28-.94-2.27-2.21-2.3Z"/>
      <path class="cls-4" d="M56.27,42.43c-7.26,4.13-14.49,8.3-21.69,12.54-2.66,1.57-4.09,3.99-4.09,7.14,0,3.96-.02,7.93-.02,11.9,8.78-8.34,21.33-20.21,33.54-31.88-2.55-1.22-5.22-1.13-7.75.3Z"/>
      <path class="cls-5" d="M75.72,42.3c.82.47,1.66.95,2.5,1.44,0-1.28,0-2.56,0-3.83,0-.79,0-.66.01-.01l.06-.06c-.02-2.96-.07-5.92-.17-8.87-.28-8.82-7.7-15.95-16.27-16.56-10.49-.74-19.25,7.38-19.26,17.9-.02,10.55,0-.49,0,10.07,0,.38.05.77.08,1.33,3.27-1.88,6.41-3.63,9.49-5.48,5.4-3.26,10.76-3.33,16.16-.22.12.06.24.14.36.21.89.53,1.79,1.05,2.69,1.58.44.26.89.52,1.34.78.99.57,1.99,1.14,3.01,1.73Z"/>
      <path class="cls-2" d="M83.95,45.74c0,.11.02.2.02.3,0-2.57,0-5.82,0-8.25,0-.12,0-.25,0-.37,0,2.77,0,5.55-.02,8.32Z"/>
      <path class="cls-2" d="M78.31,39.83l-.06.06c.02,2.01.04,9.1.05,10.43,0,0,0,0,.01,0,0-.08,0-.18,0-.32.02-3.4.02-6.79,0-10.17Z"/>
      <path class="cls-2" d="M24.73,80.49c.02,2.32.05,4.65.08,6.98-.04-2.34-.06-4.68-.08-7.02,0,.01,0,.03,0,.04Z"/>
      <path class="cls-2" d="M71.38,39.8c.44.26.89.52,1.34.78-.45-.26-.89-.52-1.34-.78Z"/>
      <polygon class="cls-2" points="65.52 110.6 65.52 110.6 62.97 107.53 65.52 110.6"/>
      <path class="cls-2" d="M70.87,103.25l-24.71-29.92c-.78-.94-.69-2.32.19-3.16l25.1-23.82c-2.27-1.3-4.54-2.6-6.82-3.9-.21-.12-.41-.22-.62-.32-12.22,11.67-24.76,23.54-33.54,31.88,0,3.45,0,6.9.02,10.34l5.89-5.18c.98-.86,2.48-.75,3.32.26l23.28,28.1c.69-.21,1.37-.51,2.06-.9,1.95-1.12,3.9-2.25,5.85-3.38Z"/>
      <path class="cls-2" d="M83.97,36.01c0-.75,0-1.3,0-1.54l-.03.03c.01.98.02,1.95.02,2.93,0-.47,0-.94,0-1.42Z"/>
      <path class="cls-2" d="M68.46,111.15c1.23-.7,2.46-1.39,3.69-2.09.02-.01.03-.03.05-.04-1.25.71-2.5,1.42-3.75,2.13,0,0,0,0,0,0Z"/>
      <path class="cls-2" d="M83.97,46.11c0-.54,0-1.07,0-1.61,0-2.24,0-4.48,0-6.71,0,2.43,0,5.68,0,8.25,0,.02,0,.04,0,.07Z"/>
      <path class="cls-2" d="M92.53,52.86c-2.04-2.36-4.81-3.61-7.42-5.08-.77-.43-1.07-.92-1.14-1.67,0,1.32,0,2.63,0,3.95v.13-.19c0-2.05-2.46-3.1-3.93-1.67-.57.55-1.15,1.11-1.73,1.68,0,.14,0,.24,0,.32,2.67,1.55,5.35,3.09,8.01,4.66,2.62,1.54,4.02,3.96,4.05,7.03.05,4.21.02,8.41.02,12.62h.02c0,3.98-.03,7.95,0,11.93.04,3.63-1.49,6.29-4.64,8.1-4.98,2.85-9.93,5.72-14.9,8.59l1.91,2.32c.9,1.09.62,2.72-.58,3.45.78-.44,1.56-.88,2.34-1.33,4.98-2.86,9.95-5.75,14.89-8.7,4.32-2.58,6.54-6.64,6.63-11.62.14-8.32.08-16.65.02-24.97-.02-3.58-1.17-6.78-3.55-9.54Z"/>
      <path class="cls-2" d="M78.25,39.89h-.01c0,1.28,0,2.56,0,3.84-.85-.49-1.68-.97-2.5-1.44-1.02-.58-2.02-1.15-3.01-1.73.1.06.2.12.31.18,1.34.77,1.57,2.62.44,3.69l-2.01,1.9c2.29,1.31,4.56,2.65,6.84,3.98-.02-1.33-.04-8.42-.05-10.43Z"/>
      <path class="cls-2" d="M83.98,34.46h0c0,.24,0,.79,0,1.54,0-.51,0-1.03,0-1.54Z"/>
      <path class="cls-2" d="M83.97,50v.06c0-1.31,0-2.63,0-3.95,0-.02,0-.04,0-.07,0,1.92,0,3.44,0,3.96Z"/>
      <path class="cls-2" d="M47.23,95.98l.26.18s-.1-.1-.26-.18Z"/>
      <path class="cls-2" d="M66.75,112.1c.18-.09.34-.18.52-.28.39-.22.79-.45,1.18-.67-1.11-.2-1.83-.34-2.94-.54l1.24,1.49Z"/>
      <path class="cls-2" d="M30.47,74.01c0-3.97,0-7.94.02-11.9,0-3.15,1.43-5.58,4.09-7.14,7.2-4.23,14.43-8.41,21.69-12.54,2.53-1.43,5.2-1.53,7.75-.3,1.02-.97,2.03-1.94,3.04-2.91,1.04-.12,1.76-.2,2.79-.31.5.3,1.02.59,1.52.89-.9-.52-1.8-1.05-2.69-1.58-.12-.07-.24-.14-.36-.21-5.4-3.11-10.76-3.05-16.16.22-3.08,1.85-6.22,3.6-9.49,5.48-.03-.56-.08-.94-.08-1.33,0-10.56-.02.48,0-10.07.02-10.52,8.78-18.65,19.26-17.9,8.58.61,15.99,7.74,16.27,16.56.1,2.95.15,5.91.17,8.87l5.64-5.34c0-.35,0-.69,0-1.04-.02-2.05-.16-4.14-.61-6.12-2.87-12.74-14.48-20.42-27.35-18.19-10.81,1.87-19.18,12.09-19.1,23.07.09,11.8,0,2,.04,13.79,0,.87-.31,1.31-1.05,1.7-1.5.78-2.98,1.59-4.4,2.5-4.1,2.66-6.55,6.45-6.66,11.34-.12,5.98-.14,11.96-.1,17.94,0,.32,0,.64.01.96,0-.63.26-1.22.72-1.66,1.48-1.41,3.17-3.02,5.03-4.79Z"/>
      <path class="cls-2" d="M47.23,95.98l-16.74-11.63-5.68,3.12c0,.56,19.93,7.23,22.42,8.51Z"/>
      <path class="cls-2" d="M83.97,34.47h0c0-.2,0-.18,0,0Z"/>
      <path class="cls-2" d="M78.31,50.01c.58-.56,1.16-1.12,1.73-1.68,1.47-1.43,3.93-.38,3.93,1.67,0-.52,0-2.04,0-3.96,0-.1-.03-.19-.02-.3.02-2.77.02-5.55.02-8.32,0-.98-.01-1.95-.02-2.93l-5.64,5.34c.03,3.38.02,6.77,0,10.17Z"/>
      <path class="cls-2" d="M78.23,39.9h.01c0-.66,0-.79-.01,0Z"/>
      <path class="cls-2" d="M25.45,78.79c-.45.43-.71,1.03-.72,1.66.02,2.34.04,4.68.08,7.02l5.68-3.12c-.02-3.45-.02-6.9-.02-10.34-1.86,1.77-3.54,3.37-5.03,4.79Z"/>
      <path class="cls-2" d="M72.79,105.56l-1.91-2.32c-1.94,1.13-3.9,2.26-5.85,3.38-.69.39-1.37.7-2.06.9l2.55,3.08c1.11.2,1.83.34,2.94.54,1.25-.71,2.5-1.42,3.75-2.13,1.2-.73,1.49-2.36.58-3.45Z"/>
      <path class="cls-2" d="M83.97,37.79c0-.67,0-1.27,0-1.78,0,.47,0,.94,0,1.42,0,.12,0,.25,0,.37Z"/>
      <path class="cls-2" d="M78.31,50.33s0,0-.01,0c0,.27,0,.31.01,0Z"/>
      <path class="cls-2" d="M73.02,40.75c-.1-.06-.2-.12-.31-.18-.45-.26-.89-.52-1.34-.78-.51-.3-1.02-.59-1.52-.89-1.04.12-1.76.2-2.79.31-1.01.96-2.02,1.93-3.04,2.91.21.1.41.2.62.32,2.28,1.3,4.55,2.59,6.82,3.9l2.01-1.9c1.12-1.07.9-2.92-.44-3.69Z"/>
      <path class="cls-2" d="M63.43,61.88c-3.55-.3-6.73,1.7-8.05,5.1-1.23,3.14-.32,7.04,2.61,8.87,1.89,1.18,2.3,2.54,2.06,4.46-.03.26,0,.54,0,.82,0,.96-.02,1.92,0,2.88.04,1.85,1.15,3.06,2.78,3.06,1.65-.02,2.77-1.21,2.79-3.05.03-1.87.05-3.74,0-5.62-.02-.82.23-1.28.98-1.71,3.3-1.93,4.7-5.09,3.95-8.66-.72-3.42-3.52-5.83-7.12-6.14ZM62.83,72.03c-1.27.02-2.3-1.07-2.26-2.42.02-1.26,1.04-2.21,2.32-2.18,1.27.03,2.22,1.02,2.21,2.3,0,1.25-1.02,2.28-2.26,2.29Z"/>
    </g>
  </g>
</svg>