<?xml version="1.0" encoding="UTF-8"?>
<svg id="Layer_2" data-name="Layer 2" xmlns="http://www.w3.org/2000/svg" viewBox="0 0 89.32 129.17">
  <defs>
    <style>
      .cls-1 {
        fill: #6fbe44;
        stroke-width: 0px;
      }
    </style>
  </defs>
  <g id="Layer_1-2" data-name="Layer 1">
    <g>
      <path class="cls-1" d="M7.24,94.49l7.36-6.48c1.23-1.08,3.1-.93,4.14.33l29.1,35.12,3.18,3.84,3.68.68c1.54-.87,3.08-1.74,4.62-2.62s1.94-2.98.8-4.36l-2.39-2.89-30.89-37.41c-.97-1.17-.86-2.9.24-3.95l31.38-29.78,2.51-2.38c1.41-1.33,1.13-3.65-.55-4.61-1.33-.77-2.65-1.53-3.96-2.3l-3.49.39c-1.26,1.2-2.53,2.42-3.8,3.63-15.27,14.59-30.95,29.42-41.93,39.85-2.32,2.21-4.43,4.21-6.28,5.98-.58.55-.91,1.32-.9,2.12.02,2.9.06,5.82.1,8.73M74.09,51.55c0-2.56-3.07-3.87-4.91-2.09-.71.69-1.43,1.39-2.16,2.1-.03,4.76-.08-17.45-.1-12.63l7.18-6.8c-.01-2.51-.01,21.99-.01,19.49,0-.02,0-.05,0-.07Z"/>
      <path class="cls-1" d="M89.23,67.06c-.03-4.47-1.46-8.48-4.44-11.93-2.55-2.95-6.01-4.51-9.27-6.35-1.11-.63-1.47-1.31-1.46-2.55.04-4.7.04-9.4.04-14.1-.01-2.51-.01,21.99-.01,19.49,0-2.31.01-4.63.01-6.94.01-4.6.02-9.2-.05-13.81-.03-2.56-.2-5.17-.76-7.65C69.7,7.3,55.19-2.3,39.1.48,25.59,2.82,15.12,15.59,15.23,29.32c.11,14.75.01,2.5.05,17.24.01,1.09-.39,1.64-1.31,2.12-1.87.97-3.73,1.99-5.5,3.13C3.34,55.13.28,59.87.15,65.98,0,73.45-.03,80.93.03,88.41c.02,3.32.06,6.65.11,9.98.01.75,28.24,10.15,28.34,10.86l-21.24-14.76c-.02-4.31-.02-8.62-.02-12.93,0-4.96.01-9.92.02-14.87,0-3.94,1.79-6.97,5.11-8.93,9-5.29,18.04-10.51,27.11-15.67,3.16-1.79,6.5-1.91,9.69-.38.26.12.51.25.77.4,2.85,1.62,5.69,3.24,8.53,4.87,6.21,3.57,12.4,7.17,18.58,10.8,3.27,1.93,5.02,4.95,5.06,8.79.06,5.26.02,10.51.02,15.77h.02c0,4.97-.04,9.94.01,14.91.05,4.54-1.86,7.86-5.8,10.12-6.22,3.56-12.41,7.15-18.62,10.74-2.43,1.41-4.87,2.82-7.31,4.22-.86.49-1.71.87-2.57,1.13l4.73,5.71c.22-.11.43-.23.65-.35,3.04-1.71,6.07-3.43,9.09-5.16,6.23-3.57,12.44-7.19,18.61-10.87,5.4-3.22,8.18-8.3,8.29-14.52.18-10.4.1-20.81.02-31.21ZM66.91,43.72c-1.06-.61-2.1-1.21-3.13-1.8-3.01-1.72-5.92-3.38-8.79-5.1-.15-.09-.3-.18-.45-.26-6.75-3.89-13.45-3.81-20.2.27-3.85,2.31-7.77,4.5-11.86,6.85-.04-.7-.1-1.18-.1-1.66,0-13.2-.02.6,0-12.59.02-13.15,10.97-23.31,24.08-22.38,10.72.76,19.99,9.68,20.34,20.7.26,7.91.26,15.83.22,23.81-.03,4.76-.08-17.45-.1-12.63-.01,1.59-.01,3.19-.01,4.79Z"/>
      <path class="cls-1" d="M57.31,74.08c-.9-4.27-4.4-7.29-8.9-7.68-4.44-.38-8.41,2.13-10.06,6.37-1.54,3.93-.4,8.8,3.26,11.09,2.36,1.47,2.87,3.17,2.58,5.57-.04.33,0,.68,0,1.02,0,1.2-.02,2.4,0,3.6.05,2.31,1.44,3.83,3.47,3.82,2.06-.02,3.46-1.51,3.49-3.81.04-2.34.06-4.68-.01-7.02-.03-1.03.29-1.6,1.23-2.14,4.13-2.41,5.88-6.36,4.94-10.82ZM47.67,79.08c-1.59.02-2.88-1.34-2.83-3.02.03-1.58,1.3-2.76,2.9-2.72,1.59.04,2.77,1.28,2.76,2.88,0,1.56-1.28,2.85-2.83,2.86Z"/>
    </g>
  </g>
</svg>